<svg xmlns="http://www.w3.org/2000/svg" width="370" height="588" viewBox="0 0 370 588">
  <g id="card_creation" data-name="card creation" transform="translate(-46 -165)">
    <path id="Path_1104" data-name="Path 1104" d="M20,0H263a20,20,0,0,1,20,20V450a20,20,0,0,1-20,20H20A20,20,0,0,1,0,450V20A20,20,0,0,1,20,0Z" transform="translate(133 165)" fill="#005448"/>
    <rect id="Rectangle_14" data-name="Rectangle 14" width="71" height="305" transform="translate(168 165)" fill="#fff"/>
    <rect id="Rectangle_12" data-name="Rectangle 12" width="283" height="470" rx="20" transform="translate(46 283)" fill="#181818"/>
    <text id="Splice" transform="translate(64 712)" fill="#fff" font-size="40" font-family="LeelawadeeUI-Bold, Leelawadee UI" font-weight="700"><tspan x="0" y="0">Splice</tspan></text>
    <text id="John_Doe" data-name="John
Doe" transform="translate(67 462)" fill="#fff" font-size="30" font-family="LeelawadeeUI-Bold, Leelawadee UI" font-weight="700"><tspan x="0" y="0">John</tspan><tspan x="0" y="40">Doe</tspan></text>
    <text id="Visa" transform="translate(67 341)" fill="#fff" font-size="25" font-family="LeelawadeeUI-Bold, Leelawadee UI" font-weight="700"><tspan x="0" y="0">Visa</tspan></text>
    <path id="Icon_open-credit-card" data-name="Icon open-credit-card" d="M1.125,0A1.114,1.114,0,0,0,0,1.125V4.5H36V1.125A1.114,1.114,0,0,0,34.875,0ZM0,9V25.875A1.114,1.114,0,0,0,1.125,27h33.75A1.114,1.114,0,0,0,36,25.875V9Zm4.5,9H9v4.5H4.5Zm9,0H18v4.5H13.5Z" transform="translate(223.6 317.5)" fill="#fff"/>
    <path id="Icon_awesome-wifi" data-name="Icon awesome-wifi" d="M25.457,7.177A18.642,18.642,0,0,0,.2,7.177.637.637,0,0,0,.19,8.1L1.563,9.46a.651.651,0,0,0,.9.015,15.383,15.383,0,0,1,20.739,0,.651.651,0,0,0,.9-.015L25.471,8.1a.638.638,0,0,0-.014-.921ZM12.83,15.08A2.566,2.566,0,1,0,15.4,17.646,2.566,2.566,0,0,0,12.83,15.08Zm8.126-3.352a12.309,12.309,0,0,0-16.252,0,.634.634,0,0,0-.023.928L6.062,14.02a.654.654,0,0,0,.884.032,9.03,9.03,0,0,1,11.767,0,.654.654,0,0,0,.884-.032l1.381-1.363A.634.634,0,0,0,20.956,11.729Z" transform="translate(301.431 318.17) rotate(90)" fill="#fff"/>
  </g>
</svg>
