<svg xmlns="http://www.w3.org/2000/svg" width="187" height="176.001" viewBox="0 0 187 176.001"><g transform="translate(-128 -46.999)"><path d="M-3997.084-1019H-4108a25.825,25.825,0,0,1-10.12-2.043,25.906,25.906,0,0,1-8.265-5.572,25.927,25.927,0,0,1-5.573-8.265A25.85,25.85,0,0,1-4134-1045v-122a25.847,25.847,0,0,1,2.042-10.12,25.928,25.928,0,0,1,5.573-8.265,25.9,25.9,0,0,1,8.265-5.572A25.821,25.821,0,0,1-4108-1193h122a25.834,25.834,0,0,1,10.121,2.044,25.892,25.892,0,0,1,8.264,5.572,25.9,25.9,0,0,1,5.573,8.265A25.836,25.836,0,0,1-3960-1167v92.574a33.8,33.8,0,0,0-13-2.574,34.038,34.038,0,0,0-34,34,33.785,33.785,0,0,0,9.915,24l0,0h0ZM-4101-1188a24.027,24.027,0,0,0-24,24,24.027,24.027,0,0,0,24,24,24.027,24.027,0,0,0,24-24A24.028,24.028,0,0,0-4101-1188Z" transform="translate(4262 1240)" fill="#005448"/><g transform="translate(175 65)"><path d="M64.783,0c2.906.019,1.744,3.919,1.988,5.8-.781,5.969,2.188,13.451-2.55,18.213C49.782,33.57,35.113,42.8,20.556,52.19,14.48,54.534,9.786,48.2,4.636,45.959,2.5,45.009-1.5,42.4,1.711,40.171,22.762,26.845,43.326,12.582,64.783,0Z" transform="translate(2.664)" fill="#fff"/><path d="M19.64,7.673a6.47,6.47,0,0,1,4.906.431c9.488,5.7,18.807,11.694,28.37,17.263,2.825,1.113,4.188,4.306,4.056,7.194-.069,5.294.156,10.6-.037,15.895-.019,1.719-2.081,2.056-3.225,1.138-15.838-9.557-31.5-19.407-47.446-28.758-1.831-.644-2.675-3.194-.775-4.288C10.19,13.586,14.684,10.18,19.64,7.673Z" transform="translate(23.174 38.748)" fill="#fff"/><path d="M1.531,7.956a4.358,4.358,0,0,1,2.788.963c15.62,9.726,31.558,18.92,47.127,28.72,2.788,2.338-1.163,4.581-3.094,5.644-4.819,2.256-9.188,8.313-15.007,6.082-10.032-6.094-20.014-12.288-30-18.457C-1.594,27.338.681,20.532.112,15.388.518,13.057-1.063,9.213,1.531,7.956Z" transform="translate(0 41.628)" fill="#fff"/><path d="M49.682,13.664c5.725.087,9.919,5.069,14.926,7.369,1.825.863,5.044,2.944,2.719,5.069C46.614,39.772,25.544,52.916,4.649,66.3c-3.056,1.288-2.913-2.888-2.713-4.781C2.943,55.06-.683,46.534,5.124,41.753,20,32.49,34.307,21.889,49.682,13.664Z" transform="translate(9.064 71.74)" fill="#fff"/></g><circle cx="20" cy="20" r="20" transform="translate(141 56)" fill="#c8e0ca"/><path d="M23.967,15.016,4.747,23.128a1.234,1.234,0,0,1-1.186-.11A1.165,1.165,0,0,1,3,21.974V5.75a1.163,1.163,0,0,1,.562-1.045A1.239,1.239,0,0,1,4.747,4.6l19.219,8.112a1.244,1.244,0,0,1,0,2.309M5.5,20.1l14.789-6.24L5.5,7.622V11.99l7.488,1.872L5.5,15.734Zm0,0v0Z" transform="translate(141.667 77.034) rotate(-47)" fill="#005448"/><g transform="translate(6.307 7.307)"><circle cx="26" cy="26" r="26" transform="translate(256.693 163.693)" fill="#c8e0ca"/><g transform="translate(269.339 179.018)"><path d="M26.573,10.1l-1.645,2.474a10.7,10.7,0,0,1-.294,10.139H6.1A10.7,10.7,0,0,1,20.153,7.8l2.474-1.645A13.375,13.375,0,0,0,3.795,24.05a2.675,2.675,0,0,0,2.3,1.338H24.62a2.675,2.675,0,0,0,2.327-1.338,13.375,13.375,0,0,0-.361-13.964Z" transform="translate(-2.032 -4.038)" fill="#005448"/><path d="M10.788,18.276a2.675,2.675,0,0,0,3.785,0L22.144,6.92,10.788,14.49a2.675,2.675,0,0,0,0,3.785" transform="translate(0.659 -3.065)" fill="#005448"/></g></g><path d="M14.014,23.711,18,21.294l3.986,2.417-1.059-4.535,3.525-3.026-4.632-.411L18,11.486,16.181,15.74l-4.632.411,3.525,3.026ZM18,33.915l-4.7-4.679H6.764V22.7L2.085,18l4.679-4.7V6.764H13.3L18,2.085l4.7,4.679h6.538V13.3L33.915,18l-4.679,4.7v6.538H22.7Z" transform="translate(129 168.915)" fill="#fff"/></g></svg>